<?xml version="1.0" encoding="UTF-8"?>
<svg id="Camada_2" data-name="Camada 2" xmlns="http://www.w3.org/2000/svg" viewBox="0 0 42.66 21.28">
  <defs>
    <style>
      .cls-1 {
        fill: #ed9723;
      }

      .cls-2 {
        fill: #e15611;
      }
    </style>
  </defs>
  <g id="Camada_1-2" data-name="Camada 1">
    <g>
      <path class="cls-2" d="M24.17,7.65c0,.32.09.53.28.64s.83.16,1.06.16h.09v3.12c0,.33-.26.59-.59.59h-2.03c-.33,0-.59-.26-.59-.59v-2.15h-.16c-.15,1.02-.57,1.79-1.25,2.32s-1.69.7-2.99.72c-.77.01-1.54-.22-1.8-.32-.19-.07-.71-.23-1.33-.98-.32-.39-.53-.83-.65-1.29s-.18-.9-.18-1.3v-2.73c0-.35-.06-.6-.19-.75s-.36-.22-.72-.22h-.01c-.33,0-.59-.26-.59-.59V1.73c0-.33.26-.59.59-.59h3.01c.33,0,.59.26.59.59v4.27c-.02,1.07-.1,2.05.71,2.61,1.12.77,2.64.16,2.73.12.52-.22.94-.67,1.04-.98.15-.46.21-1.15.21-1.61v-.31c0-.35-.06-.6-.19-.75s-.36-.22-.72-.22h0c-.33,0-.59-.26-.59-.59V1.73c0-.33.26-.59.59-.59h3.07c.33,0,.59.26.59.59v5.92Z"/>
      <path class="cls-2" d="M33.92,15.39c-.43,0-.81-.02-1.15-.07s-.64-.11-.92-.19-.54-.18-.78-.29c0,0,0,0,0,0-.35-.15-.74.09-.74.47v.17c0,.36.06.61.19.76s.37.23.73.23h.07c.29,0,.52.23.52.52v2.69c0,.29-.23.52-.52.52h-5.19c-.29,0-.52-.23-.52-.52v-2.69c0-.29.23-.52.52-.52h.08c.27,0,.48-.09.63-.27s.22-.39.22-.64v-7.06c0-.32-.09-.53-.28-.64s-.4-.17-.63-.17h-.01c-.29,0-.52-.23-.52-.52v-2.69c0-.29.23-.52.52-.52h3.25c.29,0,.52.23.52.52v1.54h.17c.25-.7.69-1.27,1.32-1.73s1.5-.68,2.59-.68c1.58,0,2.81.5,3.7,1.49s1.33,2.46,1.33,4.38-.45,3.39-1.36,4.39-2.15,1.5-3.73,1.5ZM34.85,9.6c0-.36-.02-.69-.06-1.02-.04-.3-.09-.55-.23-.84-.1-.21-.27-.59-.66-.84-.28-.19-.54-.23-.75-.26-.09-.01-1.15-.16-1.97.53-.1.09-.32.25-.45.54-.11.23-.18.5-.23.81s-.07.65-.07,1.01v2.38c0,.07.01.13.04.2.07.17.19.4.39.6.6.6,1.57.68,2.26.39.48-.2.79-.56.99-.78.11-.13.31-.34.44-.68.11-.28.19-.6.23-.96s.06-.71.06-1.08Z"/>
      <path class="cls-2" d="M9.25,16.7c-.22.47-.44.98-.67,1.51-.23.54-.53,1.03-.9,1.49s-.85.83-1.44,1.13-1.35.45-2.3.45c-.66,0-1.24-.08-1.74-.25-.5-.17-.91-.4-1.23-.68s-.57-.62-.72-.99c-.16-.37-.23-.75-.23-1.14,0-.77.24-1.38.71-1.82.48-.44,1.07-.67,1.78-.67.41,0,.76.06,1.04.18s.51.28.69.47c.18.19.3.4.37.63s.11.45.11.65c0,.46-.11.81-.34,1.05-.23.24-.5.4-.82.46.03.03.07.04.12.06.08.04.23.06.47.06.22,0,.42-.06.6-.17.18-.11.33-.25.48-.41.14-.16.27-.34.37-.53.11-.19.19-.36.25-.52l.02-.06L1.78,9.74c-.06-.15-.13-.27-.21-.37-.07-.1-.16-.19-.27-.25-.11-.07-.24-.12-.39-.15-.04,0-.09-.02-.14-.02-.25-.03-.44-.24-.44-.49v-2.59c0-.27.22-.5.5-.5h5.05c.27,0,.5.22.5.5v2.6c0,.25-.18.45-.43.49-.17.03-.29.08-.36.15-.12.12-.14.3-.03.55l1.82,3.88c.18.38.37.4.55.01l1.55-3.89c.1-.22.07-.65-.39-.65-.32-.02-.53-.02-.7-.05-.24-.04-.42-.24-.42-.49v-2.6c0-.27.22-.5.5-.5h4.27c.27,0,.5.22.5.5v2.59c0,.17-.05.4-.21.62-.01.02-.02.04-.04.05-.19.13-.35.34-.48.63l-3.25,6.96Z"/>
      <path class="cls-1" d="M17.99,15.1c-.74,0-1.8.41-1.8,1.95v.16c0,.38.35.71.77.73h2.07c.42-.02.77-.35.77-.73v-.16c0-1.49-1.07-1.95-1.8-1.95Z"/>
      <path class="cls-1" d="M22.7,15.66c-.59,0-1.44.33-1.44,1.56v.13c0,.3.28.56.62.58h1.65c.34-.02.62-.28.62-.58v-.13c0-1.19-.85-1.56-1.44-1.56Z"/>
      <path class="cls-1" d="M13.28,15.66c-.59,0-1.44.33-1.44,1.56v.13c0,.3.28.56.62.58h1.65c.34-.02.62-.28.62-.58v-.13c0-1.19-.85-1.56-1.44-1.56Z"/>
      <g>
        <path class="cls-1" d="M31.43,2.05l-.87.32v.45s-.46.17-.46.17l.02-2.35.51-.19,1.55,1.77-.46.17-.29-.34ZM31.19,1.77l-.64-.74v.98s.64-.24.64-.24Z"/>
        <path class="cls-1" d="M32.82,1.86l.77-.07.03.35-1.23.11-.19-2.19.47-.04.16,1.84Z"/>
        <path class="cls-1" d="M34.59.04l-.2,2.19-.47-.04.2-2.19.47.04Z"/>
        <path class="cls-1" d="M38.01,1.07l-.8,2.04-.44-.17.52-1.33-1.1,1.1-.33-.13-.06-1.56-.52,1.33-.44-.17.8-2.04.49.19.09,1.79,1.29-1.25.49.19Z"/>
        <path class="cls-1" d="M39.06,2.33l-.36.42.59.51-.23.26-.59-.51-.38.44.67.58-.23.27-1.02-.88,1.44-1.67,1.02.88-.23.27-.67-.58Z"/>
        <path class="cls-1" d="M39.84,6.16l-.26-.39.69-1.71-1.26.82-.26-.39,1.84-1.2.26.39-.69,1.71,1.27-.82.26.39-1.84,1.2Z"/>
        <path class="cls-1" d="M42.49,7.38l-.34.1-.17-.6-1.77.52-.13-.45,1.77-.52-.18-.6.34-.1.48,1.64Z"/>
        <path class="cls-1" d="M40.56,8.67c.1-.18.23-.32.41-.43.17-.1.37-.16.58-.15.21,0,.41.06.58.17.17.11.3.26.4.44.09.18.14.38.14.6,0,.22-.05.42-.15.6-.1.18-.23.32-.41.43-.17.1-.37.15-.58.15-.22,0-.41-.06-.58-.17-.17-.11-.3-.25-.4-.44-.09-.18-.14-.38-.14-.6,0-.22.05-.42.15-.6ZM40.89,9.64c.06.11.14.19.25.25.11.06.24.09.39.1.15,0,.28-.03.39-.09.11-.06.2-.14.26-.25.06-.11.09-.23.09-.37,0-.14-.03-.26-.08-.37-.06-.11-.14-.19-.25-.26-.11-.06-.24-.09-.38-.1-.15,0-.28.03-.39.09-.11.06-.2.14-.26.25s-.09.23-.09.37c0,.14.03.26.08.37Z"/>
        <path class="cls-1" d="M40.26,11.02c.09-.11.19-.18.31-.22.12-.04.24-.04.37,0l-.16.48c-.09-.02-.17-.01-.23.03-.07.04-.12.11-.15.22-.03.1-.04.19-.01.27.03.07.08.12.15.15.06.02.12.02.17-.01.05-.03.1-.07.14-.12.04-.05.1-.13.16-.22.09-.13.16-.23.23-.31.07-.08.15-.13.25-.17.1-.04.22-.04.35,0,.12.04.22.11.29.2.07.1.11.21.12.35.01.13-.01.28-.06.43-.07.23-.19.4-.34.51-.15.11-.32.14-.52.09l.16-.49c.07.02.14,0,.21-.04.07-.04.12-.12.15-.22.03-.09.03-.16,0-.23-.02-.07-.08-.11-.16-.14-.06-.02-.11-.01-.16.01-.05.03-.1.07-.14.12-.04.05-.1.12-.16.22-.09.13-.17.23-.24.31-.07.08-.16.14-.26.18-.1.04-.22.04-.35,0-.11-.04-.21-.1-.28-.19-.08-.09-.12-.21-.14-.34-.02-.14,0-.29.05-.45.05-.15.12-.29.21-.39Z"/>
      </g>
    </g>
  </g>
</svg>